<svg xmlns="http://www.w3.org/2000/svg" viewBox="0 0 258.21 170.63"><title>unm-mono-white</title><path d="M63.89,60.55H52.18V43.93h49.33V60.55H89.8a1.58,1.58,0,0,0-1.58,1.59V112L65.5,91.71V62.14A1.6,1.6,0,0,0,63.89,60.55ZM170.3,62.14V95.25l11.33,15,11.39-15v-33a1.6,1.6,0,0,1,1.6-1.59h11.71V43.93H157V60.55h11.7A1.59,1.59,0,0,1,170.3,62.14ZM246.63,91h11.72V74.37h-42l-34.68,45.8L147,74.37h-42V91h11.71a1.59,1.59,0,0,1,1.59,1.6V146.9L37.09,74.37H.13V91H11.82a1.59,1.59,0,0,1,1.6,1.6V158.3a1.59,1.59,0,0,1-1.6,1.59H.13v16.62h48.6V159.89h-11a1.59,1.59,0,0,1-1.59-1.59V104l81.13,72.52h23.67V104.06l40.69,53.74,40.69-53.74V158.3a1.59,1.59,0,0,1-1.59,1.59h-11v16.62h48.62V159.89H246.63A1.59,1.59,0,0,1,245,158.3V92.59A1.59,1.59,0,0,1,246.63,91Zm-76.37,61.76v28.06a2.35,2.35,0,0,1-.68,1.67c-4.87,4.92-19.4,14.28-40.32,14.28S93.8,187.4,88.94,182.48a2.32,2.32,0,0,1-.69-1.67V158.63L65.53,138.31v47.24a3.24,3.24,0,0,0,.66,1.94c14.63,19.14,39.11,27.06,63.07,27.06s48.43-7.92,63.06-27.06a3.18,3.18,0,0,0,.66-1.94v-32.8l-11.35,15Zm83.05,39.62a5,5,0,1,1,0-10.09,5,5,0,0,1,0,10.09Zm-4.17-5.05a4.16,4.16,0,1,0,4.17-4.17A4.15,4.15,0,0,0,249.14,187.32Zm2,2.81v-5.59h2.71c1.08.08,1.84.55,1.84,1.63,0,.86-.49,1.29-1.36,1.39,1.71.35.92,1.12,1.39,2.56h-1.4c-.08-.33-.1-1.24-.18-1.46-.21-.55-.93-.52-1.54-.52v2Zm1.82-4.6h-.36v1.62h.57c.64,0,1.09-.23,1.09-.87S253.56,185.53,252.92,185.53Z" transform="translate(-0.13 -43.93)" style="fill:#fff"/></svg>